<svg width="20" height="18" viewBox="0 0 20 18" fill="none" xmlns="http://www.w3.org/2000/svg">
<path d="M8.17381 1.07938C8.58559 1.26199 8.85415 1.67378 8.85415 2.12495V4.41662H12.8646C16.345 4.41662 19.1666 7.23823 19.1666 10.7187C19.1666 14.7757 16.2484 16.5875 15.5788 16.9527C15.4892 17.0029 15.389 17.0208 15.2887 17.0208C14.8984 17.0208 14.5833 16.7021 14.5833 16.3154C14.5833 16.0468 14.7373 15.7998 14.9342 15.6171C15.2708 15.302 15.7291 14.6718 15.7291 13.5869C15.7291 11.6891 14.1894 10.1494 12.2916 10.1494H8.85415V12.441C8.85415 12.8922 8.58917 13.304 8.17381 13.4866C7.75844 13.6692 7.27863 13.594 6.94204 13.2932L1.21287 8.13699C0.972961 7.91499 0.833313 7.60704 0.833313 7.2812C0.833313 6.95535 0.972961 6.64741 1.21287 6.42898L6.94204 1.27273C7.27863 0.968373 7.76202 0.893177 8.17381 1.07938Z" fill="#A9A9A9"/>
</svg>
