<svg width="172" height="26" viewBox="0 0 172 26" fill="none" xmlns="http://www.w3.org/2000/svg">
<path d="M58.4228 11.9884C57.5891 11.4475 56.4739 10.9992 55.0771 10.645L52.576 10.0145C52.1708 9.92631 51.8722 9.83218 51.6804 9.73206C51.4886 9.63195 51.3479 9.50493 51.2582 9.35103C51.1685 9.19712 51.1236 8.97597 51.1236 8.68758C51.1236 8.20195 51.2705 7.86425 51.5629 7.67597C51.8552 7.48769 52.3177 7.39356 52.9488 7.39356C53.9171 7.39356 54.9658 7.39953 56.0918 7.40999C57.2179 7.42195 58.4243 7.43838 59.7081 7.4593L59.7422 2.08597C58.3903 1.81999 57.0833 1.63769 55.8211 1.53907C54.559 1.43896 53.1963 1.38965 51.7315 1.38965C49.7934 1.38965 48.2219 1.64367 47.0154 2.15321C45.8089 2.66275 44.9304 3.4308 44.3782 4.45884C43.826 5.48689 43.5507 6.81976 43.5507 8.45597C43.5507 9.84861 43.7425 10.9932 44.1245 11.8883C44.5081 12.7833 45.116 13.5021 45.9497 14.0445C46.7834 14.5869 47.8878 14.9903 49.2629 15.2548L51.5613 15.6867C52.0115 15.7748 52.3564 15.869 52.593 15.9691C52.8297 16.0692 52.9983 16.2231 53.1004 16.4338C53.2025 16.6445 53.252 16.9254 53.252 17.2795C53.252 17.6337 53.1901 17.8982 53.0663 18.076C52.9426 18.2538 52.757 18.3748 52.508 18.4406C52.2605 18.5063 51.9558 18.5407 51.5954 18.5407C50.2652 18.5407 48.9643 18.5362 47.6913 18.5242C46.4184 18.5138 45.1284 18.4973 43.8213 18.4749L43.7873 23.781C45.365 24.047 46.7726 24.2457 48.0131 24.3787C49.252 24.5117 50.6828 24.5775 52.3053 24.5775C54.2883 24.5775 55.9046 24.3339 57.156 23.8483C58.4073 23.3626 59.3307 22.605 59.9278 21.577C60.5248 20.549 60.8234 19.1623 60.8234 17.414C60.8234 16.0662 60.6316 14.9605 60.2495 14.0968C59.8659 13.2346 59.258 12.5323 58.4243 11.9914L58.4228 11.9884Z" fill="#000C59"/>
<path d="M104.003 14.2776C103.172 13.6246 102.006 13.3556 100.504 13.2301V12.6981C101.172 12.5891 101.758 12.5203 102.261 12.2543C103.118 11.8016 103.749 11.1875 104.154 10.4134C104.56 9.63941 104.762 8.72193 104.762 7.66101V7.16343C104.762 5.24033 104.199 3.8686 103.072 3.05124C101.944 2.23389 100.21 1.82446 97.8668 1.82446H86.1036V24.1785H98.272C100.052 24.1785 101.466 23.9902 102.515 23.6152C103.562 23.2401 104.329 22.6364 104.813 21.8071C105.297 20.9778 105.54 19.8676 105.54 18.4734V17.9758C105.54 16.3172 105.027 15.0845 104.003 14.2776ZM96.1777 7.49515C96.7407 7.49515 97.1119 7.59527 97.2929 7.794C97.4723 7.99274 97.5636 8.32446 97.5636 8.78918V9.22102C97.5636 9.70814 97.5187 10.0727 97.429 10.3148C97.3393 10.5584 97.1924 10.7347 96.9898 10.8453C96.7871 10.9558 96.4716 11.0111 96.0431 11.0111H93.7787V7.49515H96.1792H96.1777ZM98.0029 17.0464C98.0029 17.5769 97.8853 17.9534 97.6487 18.1746C97.412 18.3957 97.0238 18.5063 96.4824 18.5063H93.7787V14.9575H96.5164C97.0795 14.9575 97.4677 15.0621 97.6827 15.2727C97.8962 15.4834 98.0044 15.8973 98.0044 16.516V17.0464H98.0029Z" fill="#000C59"/>
<path d="M168.207 14.2776C167.377 13.6246 166.211 13.3556 164.709 13.2301V12.6981C165.377 12.5891 165.963 12.5203 166.466 12.2543C167.323 11.8016 167.954 11.1875 168.359 10.4134C168.764 9.63941 168.967 8.72193 168.967 7.66101V7.16343C168.967 5.24033 168.404 3.8686 167.276 3.05124C166.149 2.23389 164.415 1.82446 162.071 1.82446H150.308V24.1785H162.477C164.257 24.1785 165.671 23.9902 166.719 23.6152C167.767 23.2401 168.534 22.6364 169.018 21.8071C169.502 20.9778 169.745 19.8676 169.745 18.4734V17.9758C169.745 16.3172 169.231 15.0845 168.207 14.2776ZM160.382 7.49515C160.945 7.49515 161.317 7.59527 161.498 7.794C161.677 7.99274 161.768 8.32446 161.768 8.78918V9.22102C161.768 9.70814 161.723 10.0727 161.634 10.3148C161.544 10.5584 161.397 10.7347 161.194 10.8453C160.992 10.9558 160.676 11.0111 160.248 11.0111H157.983V7.49515H160.384H160.382ZM162.207 17.0464C162.207 17.5769 162.09 17.9534 161.853 18.1746C161.617 18.3957 161.228 18.5063 160.687 18.5063H157.983V14.9575H160.721C161.284 14.9575 161.672 15.0621 161.887 15.2727C162.101 15.4834 162.209 15.8973 162.209 16.516V17.0464H162.207Z" fill="#000C59"/>
<path d="M122.627 11.9884C121.794 11.4475 120.678 10.9992 119.282 10.645L116.781 10.0145C116.375 9.92631 116.075 9.83218 115.885 9.73206C115.693 9.63195 115.552 9.50493 115.463 9.35103C115.373 9.19712 115.328 8.97597 115.328 8.68758C115.328 8.20195 115.475 7.86425 115.767 7.67597C116.06 7.48769 116.522 7.39356 117.153 7.39356C118.122 7.39356 119.17 7.39953 120.296 7.40999C121.422 7.42195 122.629 7.43838 123.913 7.4593L123.947 2.08597C122.595 1.81999 121.288 1.63769 120.026 1.53907C118.764 1.43896 117.401 1.38965 115.936 1.38965C113.998 1.38965 112.426 1.64367 111.222 2.15321C110.015 2.66275 109.136 3.4308 108.584 4.45884C108.032 5.48689 107.757 6.81976 107.757 8.45597C107.757 9.84861 107.949 10.9932 108.331 11.8883C108.714 12.7833 109.322 13.5021 110.156 14.0445C110.99 14.5869 112.094 14.9903 113.469 15.2548L115.767 15.6867C116.218 15.7748 116.562 15.869 116.799 15.9691C117.036 16.0692 117.204 16.2231 117.306 16.4338C117.409 16.6445 117.458 16.9254 117.458 17.2795C117.458 17.6337 117.396 17.8982 117.272 18.076C117.149 18.2538 116.963 18.3748 116.714 18.4406C116.467 18.5063 116.162 18.5407 115.801 18.5407C114.471 18.5407 113.17 18.5362 111.897 18.5242C110.624 18.5138 109.334 18.4973 108.027 18.4749L107.993 23.781C109.571 24.047 110.979 24.2457 112.219 24.3787C113.458 24.5117 114.889 24.5775 116.511 24.5775C118.494 24.5775 120.111 24.3339 121.362 23.8483C122.613 23.3626 123.537 22.605 124.134 21.577C124.731 20.549 125.029 19.1623 125.029 17.414C125.029 16.0662 124.838 14.9605 124.454 14.0968C124.07 13.2346 123.463 12.5323 122.629 11.9914L122.627 11.9884Z" fill="#000C59"/>
<path d="M139.812 15.9855C139.812 16.6041 139.772 17.0524 139.694 17.3288C139.615 17.6053 139.413 17.8204 139.086 17.9758C138.76 18.1312 138.213 18.2075 137.447 18.2075C136.681 18.2075 136.129 18.1357 135.79 17.9923C135.452 17.8488 135.244 17.6337 135.165 17.3453C135.086 17.0584 135.048 16.6041 135.048 15.9855V13.2241H127.274V15.6209C127.274 18.0745 127.515 19.9154 128.001 21.1437C128.485 22.3704 129.438 23.255 130.858 23.7975C132.278 24.3384 134.474 24.6103 137.448 24.6103C140.423 24.6103 142.615 24.3399 144.022 23.7975C145.43 23.2565 146.376 22.3719 146.862 21.1437C147.346 19.9169 147.589 18.076 147.589 15.6209V13.2241H139.815V15.9855H139.812Z" fill="#000C59"/>
<path d="M75.6073 4.58432C75.6073 5.20294 75.5671 5.65121 75.4898 5.92765C75.4109 6.20409 75.2083 6.41926 74.8819 6.57466C74.5555 6.73006 74.008 6.80627 73.2423 6.80627C72.4767 6.80627 71.9245 6.73455 71.5858 6.5911C71.247 6.44765 71.0397 6.23248 70.9609 5.94409C70.882 5.65719 70.8433 5.20294 70.8433 4.58432V1.82294H63.0693V4.21972C63.0693 6.67328 63.3106 8.5142 63.7963 9.74248C64.2804 10.9693 65.2332 11.8539 66.6531 12.3963C68.0731 12.9372 70.2695 13.2091 73.2439 13.2091C76.2183 13.2091 78.4101 12.9387 79.8176 12.3963C81.2252 11.8554 82.1718 10.9708 82.6575 9.74248C83.1416 8.5157 83.3845 6.67478 83.3845 4.21972V1.82294H75.6104V4.58432H75.6073Z" fill="#000C59"/>
<path d="M36.1695 10.5778C36.1695 8.12575 35.1811 5.82011 33.3869 4.08678C31.5926 2.35345 29.206 1.39862 26.6677 1.39862C23.7335 1.39862 21.0097 2.68816 19.2123 4.88919C17.4166 2.68965 14.6912 1.39862 11.757 1.39862C9.21871 1.39862 6.83206 2.35345 5.03781 4.08678C3.24357 5.82011 2.25519 8.12575 2.25519 10.5778V15.4416C2.25519 17.8892 3.25594 20.1918 5.04864 21.9222C6.84134 23.654 9.22335 24.6074 11.757 24.6074C14.6927 24.6074 17.4181 23.3118 19.2123 21.1018C21.0066 23.3118 23.732 24.6074 26.6677 24.6074C29.2013 24.6074 31.5849 23.654 33.3761 21.9222C35.1672 20.1903 36.1695 17.8892 36.1695 15.4416V10.5778Z" fill="#000C59"/>
<path d="M3.52661 10.5778C3.52661 14.9619 7.21873 18.5287 11.7569 18.5287C14.5643 18.5287 17.152 17.1645 18.6772 14.8783H19.746C21.2711 17.1645 23.8588 18.5287 26.6662 18.5287C31.2044 18.5287 34.8965 14.9619 34.8965 10.5778C34.8965 6.19367 31.2044 2.62689 26.6662 2.62689C23.8588 2.62689 21.2711 3.99114 19.746 6.27735H18.6772C17.152 3.99114 14.5643 2.62689 11.7569 2.62689C7.21873 2.62689 3.52661 6.19367 3.52661 10.5778Z" fill="#D6FC00"/>
</svg>
